<mxfile host="app.diagrams.net" modified="2021-05-20T08:38:29.858Z" agent="5.0 (Windows NT 10.0; Win64; x64) AppleWebKit/537.36 (KHTML, like Gecko) Chrome/90.0.4430.212 Safari/537.36" etag="nqePcA8P53djjVuUSSa6" version="14.6.13" type="github">
  <diagram id="kcFz9Mre2-xL6s3kG69r" name="第 1 页">
    <mxGraphModel dx="1422" dy="706" grid="1" gridSize="10" guides="1" tooltips="1" connect="1" arrows="1" fold="1" page="1" pageScale="1" pageWidth="827" pageHeight="1169" math="0" shadow="0">
      <root>
        <mxCell id="0" />
        <mxCell id="1" parent="0" />
        <mxCell id="JrNn_ZJyUyLCpYJvbUuc-48" value="&lt;font style=&quot;font-size: 17px&quot;&gt;LDAS&lt;/font&gt;" style="rounded=1;whiteSpace=wrap;html=1;align=center;dashed=1;verticalAlign=top;" vertex="1" parent="1">
          <mxGeometry x="220" y="200" width="420" height="340" as="geometry" />
        </mxCell>
        <mxCell id="JrNn_ZJyUyLCpYJvbUuc-1" value="redis" style="rounded=1;whiteSpace=wrap;html=1;fillColor=#1ba1e2;strokeColor=#006EAF;fontColor=#ffffff;" vertex="1" parent="1">
          <mxGeometry x="390" y="330" width="60" height="80" as="geometry" />
        </mxCell>
        <mxCell id="JrNn_ZJyUyLCpYJvbUuc-18" value="PDT" style="rounded=1;whiteSpace=wrap;html=1;fillColor=#60a917;strokeColor=#2D7600;fontColor=#ffffff;" vertex="1" parent="1">
          <mxGeometry x="670" y="302.5" width="50" height="135" as="geometry" />
        </mxCell>
        <mxCell id="JrNn_ZJyUyLCpYJvbUuc-22" value="" style="shape=flexArrow;endArrow=classic;html=1;strokeColor=#000000;exitX=0;exitY=0.5;exitDx=0;exitDy=0;entryX=1;entryY=0.5;entryDx=0;entryDy=0;" edge="1" parent="1" source="JrNn_ZJyUyLCpYJvbUuc-18" target="JrNn_ZJyUyLCpYJvbUuc-26">
          <mxGeometry width="50" height="50" relative="1" as="geometry">
            <mxPoint x="730" y="365" as="sourcePoint" />
            <mxPoint x="620" y="365" as="targetPoint" />
          </mxGeometry>
        </mxCell>
        <mxCell id="JrNn_ZJyUyLCpYJvbUuc-24" value="" style="shape=flexArrow;endArrow=classic;html=1;strokeColor=#000000;exitX=0;exitY=0.5;exitDx=0;exitDy=0;entryX=1;entryY=0.5;entryDx=0;entryDy=0;" edge="1" parent="1" source="JrNn_ZJyUyLCpYJvbUuc-26" target="JrNn_ZJyUyLCpYJvbUuc-1">
          <mxGeometry width="50" height="50" relative="1" as="geometry">
            <mxPoint x="480" y="365" as="sourcePoint" />
            <mxPoint x="370" y="365" as="targetPoint" />
          </mxGeometry>
        </mxCell>
        <mxCell id="JrNn_ZJyUyLCpYJvbUuc-27" value="" style="group;fillColor=#1ba1e2;fontColor=#ffffff;strokeColor=#000000;" vertex="1" connectable="0" parent="1">
          <mxGeometry x="500" y="270" width="120" height="200" as="geometry" />
        </mxCell>
        <mxCell id="JrNn_ZJyUyLCpYJvbUuc-26" value="&amp;nbsp; Worker Cluster" style="rounded=1;whiteSpace=wrap;html=1;align=center;verticalAlign=top;fillColor=#1ba1e2;strokeColor=#006EAF;fontColor=#ffffff;" vertex="1" parent="JrNn_ZJyUyLCpYJvbUuc-27">
          <mxGeometry width="120" height="200" as="geometry" />
        </mxCell>
        <mxCell id="JrNn_ZJyUyLCpYJvbUuc-2" value="worker 1" style="rounded=1;whiteSpace=wrap;html=1;" vertex="1" parent="JrNn_ZJyUyLCpYJvbUuc-27">
          <mxGeometry x="20" y="35" width="80" height="30" as="geometry" />
        </mxCell>
        <mxCell id="JrNn_ZJyUyLCpYJvbUuc-3" value="worker 2" style="rounded=1;whiteSpace=wrap;html=1;" vertex="1" parent="JrNn_ZJyUyLCpYJvbUuc-27">
          <mxGeometry x="20" y="85" width="80" height="30" as="geometry" />
        </mxCell>
        <mxCell id="JrNn_ZJyUyLCpYJvbUuc-4" value="worker 3" style="rounded=1;whiteSpace=wrap;html=1;" vertex="1" parent="JrNn_ZJyUyLCpYJvbUuc-27">
          <mxGeometry x="20" y="135" width="80" height="30" as="geometry" />
        </mxCell>
        <mxCell id="JrNn_ZJyUyLCpYJvbUuc-30" value="" style="shape=image;html=1;verticalAlign=top;verticalLabelPosition=bottom;labelBackgroundColor=#ffffff;imageAspect=0;aspect=fixed;image=https://cdn2.iconfinder.com/data/icons/essential-web-3/50/destop-computer-screen-website-personal-128.png;align=left;" vertex="1" parent="1">
          <mxGeometry x="60" y="282.5" width="50" height="50" as="geometry" />
        </mxCell>
        <mxCell id="JrNn_ZJyUyLCpYJvbUuc-32" value="" style="shape=image;html=1;verticalAlign=top;verticalLabelPosition=bottom;labelBackgroundColor=#ffffff;imageAspect=0;aspect=fixed;image=https://cdn2.iconfinder.com/data/icons/essential-web-3/50/destop-computer-screen-website-personal-128.png;align=left;" vertex="1" parent="1">
          <mxGeometry x="60" y="347.5" width="50" height="50" as="geometry" />
        </mxCell>
        <mxCell id="JrNn_ZJyUyLCpYJvbUuc-33" value="" style="shape=image;html=1;verticalAlign=top;verticalLabelPosition=bottom;labelBackgroundColor=#ffffff;imageAspect=0;aspect=fixed;image=https://cdn2.iconfinder.com/data/icons/essential-web-3/50/destop-computer-screen-website-personal-128.png;align=left;" vertex="1" parent="1">
          <mxGeometry x="60" y="407.5" width="50" height="50" as="geometry" />
        </mxCell>
        <mxCell id="JrNn_ZJyUyLCpYJvbUuc-35" value="" style="group" vertex="1" connectable="0" parent="1">
          <mxGeometry x="230" y="270" width="120" height="200" as="geometry" />
        </mxCell>
        <mxCell id="JrNn_ZJyUyLCpYJvbUuc-36" value="&amp;nbsp; Webservice Cluster" style="rounded=1;whiteSpace=wrap;html=1;align=center;verticalAlign=top;fillColor=#1ba1e2;strokeColor=#006EAF;fontColor=#ffffff;" vertex="1" parent="JrNn_ZJyUyLCpYJvbUuc-35">
          <mxGeometry width="120" height="200" as="geometry" />
        </mxCell>
        <mxCell id="JrNn_ZJyUyLCpYJvbUuc-37" value="webservice 1" style="rounded=1;whiteSpace=wrap;html=1;" vertex="1" parent="JrNn_ZJyUyLCpYJvbUuc-35">
          <mxGeometry x="20" y="35" width="80" height="30" as="geometry" />
        </mxCell>
        <mxCell id="JrNn_ZJyUyLCpYJvbUuc-38" value="webservice 2" style="rounded=1;whiteSpace=wrap;html=1;" vertex="1" parent="JrNn_ZJyUyLCpYJvbUuc-35">
          <mxGeometry x="20" y="85" width="80" height="30" as="geometry" />
        </mxCell>
        <mxCell id="JrNn_ZJyUyLCpYJvbUuc-39" value="webservice 3" style="rounded=1;whiteSpace=wrap;html=1;" vertex="1" parent="JrNn_ZJyUyLCpYJvbUuc-35">
          <mxGeometry x="20" y="135" width="80" height="30" as="geometry" />
        </mxCell>
        <mxCell id="JrNn_ZJyUyLCpYJvbUuc-40" value="" style="shape=flexArrow;endArrow=classic;html=1;strokeColor=#000000;exitX=0;exitY=0.5;exitDx=0;exitDy=0;entryX=1;entryY=0.5;entryDx=0;entryDy=0;" edge="1" parent="1" source="JrNn_ZJyUyLCpYJvbUuc-1" target="JrNn_ZJyUyLCpYJvbUuc-36">
          <mxGeometry width="50" height="50" relative="1" as="geometry">
            <mxPoint x="390" y="550" as="sourcePoint" />
            <mxPoint x="440" y="500" as="targetPoint" />
          </mxGeometry>
        </mxCell>
        <mxCell id="JrNn_ZJyUyLCpYJvbUuc-45" style="edgeStyle=none;rounded=0;orthogonalLoop=1;jettySize=auto;html=1;entryX=0;entryY=0.5;entryDx=0;entryDy=0;endArrow=none;endFill=0;strokeColor=#000000;" edge="1" parent="1" source="JrNn_ZJyUyLCpYJvbUuc-43" target="JrNn_ZJyUyLCpYJvbUuc-36">
          <mxGeometry relative="1" as="geometry" />
        </mxCell>
        <mxCell id="JrNn_ZJyUyLCpYJvbUuc-43" value="" style="shape=curlyBracket;whiteSpace=wrap;html=1;rounded=1;flipH=1;align=left;" vertex="1" parent="1">
          <mxGeometry x="120" y="310" width="20" height="120" as="geometry" />
        </mxCell>
        <mxCell id="JrNn_ZJyUyLCpYJvbUuc-46" value="Load Balancer" style="text;html=1;align=center;verticalAlign=middle;resizable=0;points=[];autosize=1;strokeColor=none;" vertex="1" parent="1">
          <mxGeometry x="130" y="347.5" width="90" height="20" as="geometry" />
        </mxCell>
      </root>
    </mxGraphModel>
  </diagram>
</mxfile>
